<svg xmlns="http://www.w3.org/2000/svg" width="320" height="220" viewBox="0 0 320 220">
  <defs>
    <linearGradient id="body" x1="0" y1="0" x2="1" y2="1"><stop offset="0" stop-color="#9aa5b3"/><stop offset="0.45" stop-color="#303846"/><stop offset="1" stop-color="#101722"/></linearGradient>
    <linearGradient id="glass" x1="0" y1="0" x2="1" y2="1"><stop offset="0" stop-color="#dde8f6"/><stop offset="1" stop-color="#43546c"/></linearGradient>
    <filter id="s" x="-20%" y="-20%" width="140%" height="140%"><feDropShadow dx="0" dy="8" stdDeviation="8" flood-color="#000" flood-opacity="0.22"/></filter>
  </defs>
  <rect width="320" height="220" fill="#fff"/>
  <ellipse cx="164" cy="181" rx="122" ry="10" fill="#d8dde5" opacity="0.85"/>
  <g filter="url(#s)">
    <path d="M45 126c10-30 35-45 76-49l72-4c32-2 60 16 77 47l20 8c8 3 13 10 13 19v19H26v-16c0-12 8-21 19-24Z" fill="url(#body)"/>
    <path d="M91 86c19-16 46-19 85-18 28 1 49 14 63 37H71c4-8 11-14 20-19Z" fill="url(#glass)"/>
    <path d="M157 71v33M69 106h174" stroke="#1d2734" stroke-width="4" opacity="0.55"/>
    <path d="M41 134h52M232 132h50" stroke="#b6c8da" stroke-width="5" stroke-linecap="round" opacity="0.8"/>
    <g transform="translate(83 166)"><circle r="28" fill="#141923"/><circle r="16" fill="#768292"/><circle r="7" fill="#222a35"/></g>
    <g transform="translate(238 166)"><circle r="28" fill="#141923"/><circle r="16" fill="#768292"/><circle r="7" fill="#222a35"/></g>
    <path d="M139 115h44" stroke="#0d1724" stroke-width="14" stroke-linecap="round"/><path d="M143 108h36" stroke="#d8dee8" stroke-width="3" stroke-linecap="round" opacity="0.7"/>
    <path d="M124 117c11 8 24 11 38 11s27-3 38-11" fill="none" stroke="#0f1620" stroke-width="4"/>
    <rect x="142" y="129" width="39" height="15" rx="3" fill="#0d1520" stroke="#30394a"/>
  </g>
</svg>