<svg xmlns="http://www.w3.org/2000/svg" width="900" height="260" viewBox="0 0 900 260">
  <rect width="900" height="260" rx="24" fill="#ffffff"/>
  <g transform="translate(20 10)">
  <defs>
    <linearGradient id="g" x1="0" y1="0" x2="1" y2="1"><stop offset="0" stop-color="#f5f8ff"/><stop offset="0.18" stop-color="#94a8c6"/><stop offset="0.55" stop-color="#1f2f4b"/><stop offset="1" stop-color="#0f1b30"/></linearGradient>
    <linearGradient id="edge" x1="0" y1="0" x2="1" y2="1"><stop offset="0" stop-color="#ffffff"/><stop offset="1" stop-color="#6f819c"/></linearGradient>
    <filter id="shadow" x="-20%" y="-20%" width="140%" height="140%"><feDropShadow dx="0" dy="8" stdDeviation="10" flood-color="#081225" flood-opacity="0.25"/></filter>
  </defs>
  <rect width="256" height="256" fill="#fff"/>
  <path filter="url(#shadow)" d="M128 21 202 50v64c0 58-32 98-74 119-42-21-74-61-74-119V50l74-29Z" fill="url(#edge)"/>
  <path d="M128 34 188 58v57c0 47-24 82-60 101-36-19-60-54-60-101V58l60-24Z" fill="url(#g)"/>
  <path d="M128 35v180c36-19 60-54 60-100V58l-60-23Z" fill="#0a1424" opacity="0.23"/>
  <text x="128" y="150" text-anchor="middle" font-family="Arial, Helvetica, sans-serif" font-weight="700" font-size="74" fill="#fff">¥</text>
</g>
  <g transform="translate(235 20) scale(0.95)">
  <defs>
    <linearGradient id="body" x1="0" y1="0" x2="1" y2="1"><stop offset="0" stop-color="#9aa5b3"/><stop offset="0.45" stop-color="#303846"/><stop offset="1" stop-color="#101722"/></linearGradient>
    <linearGradient id="glass" x1="0" y1="0" x2="1" y2="1"><stop offset="0" stop-color="#dde8f6"/><stop offset="1" stop-color="#43546c"/></linearGradient>
    <filter id="s" x="-20%" y="-20%" width="140%" height="140%"><feDropShadow dx="0" dy="8" stdDeviation="8" flood-color="#000" flood-opacity="0.22"/></filter>
  </defs>
  <rect width="320" height="220" fill="#fff"/>
  <ellipse cx="164" cy="181" rx="122" ry="10" fill="#d8dde5" opacity="0.85"/>
  <g filter="url(#s)">
    <path d="M45 126c10-30 35-45 76-49l72-4c32-2 60 16 77 47l20 8c8 3 13 10 13 19v19H26v-16c0-12 8-21 19-24Z" fill="url(#body)"/>
    <path d="M91 86c19-16 46-19 85-18 28 1 49 14 63 37H71c4-8 11-14 20-19Z" fill="url(#glass)"/>
    <path d="M157 71v33M69 106h174" stroke="#1d2734" stroke-width="4" opacity="0.55"/>
    <path d="M41 134h52M232 132h50" stroke="#b6c8da" stroke-width="5" stroke-linecap="round" opacity="0.8"/>
    <g transform="translate(83 166)"><circle r="28" fill="#141923"/><circle r="16" fill="#768292"/><circle r="7" fill="#222a35"/></g>
    <g transform="translate(238 166)"><circle r="28" fill="#141923"/><circle r="16" fill="#768292"/><circle r="7" fill="#222a35"/></g>
    <path d="M139 115h44" stroke="#0d1724" stroke-width="14" stroke-linecap="round"/><path d="M143 108h36" stroke="#d8dee8" stroke-width="3" stroke-linecap="round" opacity="0.7"/>
    <path d="M124 117c11 8 24 11 38 11s27-3 38-11" fill="none" stroke="#0f1620" stroke-width="4"/>
    <rect x="142" y="129" width="39" height="15" rx="3" fill="#0d1520" stroke="#30394a"/>
  </g>
</g>
  <g transform="translate(520 20)">
  <defs>
    <linearGradient id="wall" x1="0" y1="0" x2="1" y2="1"><stop offset="0" stop-color="#f2ffff"/><stop offset="1" stop-color="#c5e6e7"/></linearGradient>
    <linearGradient id="teal" x1="0" y1="0" x2="1" y2="1"><stop offset="0" stop-color="#79d8d2"/><stop offset="1" stop-color="#2c9c9a"/></linearGradient>
    <linearGradient id="glass" x1="0" y1="0" x2="1" y2="1"><stop offset="0" stop-color="#e9ffff"/><stop offset="1" stop-color="#8fc5cd"/></linearGradient>
    <filter id="drop" x="-20%" y="-20%" width="140%" height="140%"><feDropShadow dx="0" dy="9" stdDeviation="8" flood-color="#6d858c" flood-opacity="0.22"/></filter>
  </defs>
  <rect width="260" height="220" fill="#fff"/>
  <ellipse cx="131" cy="184" rx="90" ry="13" fill="#dce7e8"/>
  <g filter="url(#drop)">
    <path d="M60 78h128v92H60z" fill="url(#wall)"/>
    <path d="M77 92h40v78H77zM128 92h42v78h-42z" fill="url(#glass)" stroke="#5da9ad" stroke-width="3"/>
    <path d="M55 55h139l20 25H34l21-25Z" fill="url(#teal)"/>
    <path d="M55 55h139l-10-13H67L55 55Z" fill="#b8f2ef"/>
    <path d="M188 80h26v90h-26z" fill="#d9eeee"/>
    <path d="M185 80h29L194 55H55L34 80z" fill="#61c6c1" opacity="0.72"/>
    <path d="M74 170h119" stroke="#86a7ad" stroke-width="4" stroke-linecap="round"/>
  </g>
</g>
  <g transform="translate(690 10)">
  <defs>
    <linearGradient id="paper" x1="0" y1="0" x2="1" y2="1"><stop offset="0" stop-color="#ffffff"/><stop offset="1" stop-color="#eef4fb"/></linearGradient>
    <linearGradient id="shield" x1="0" y1="0" x2="1" y2="1"><stop offset="0" stop-color="#91c4ff"/><stop offset="1" stop-color="#386ba8"/></linearGradient>
    <filter id="soft" x="-20%" y="-20%" width="140%" height="140%"><feDropShadow dx="0" dy="7" stdDeviation="8" flood-color="#56657c" flood-opacity="0.18"/></filter>
  </defs>
  <rect width="260" height="240" fill="#fff"/>
  <g filter="url(#soft)">
    <rect x="47" y="30" width="128" height="168" rx="14" fill="url(#paper)"/>
    <path d="M74 77h77M74 105h77M74 133h77M74 161h50" stroke="#bac7dc" stroke-width="5" stroke-linecap="round"/>
    <path d="M175 108 219 124v34c0 30-18 50-44 62-26-12-44-32-44-62v-34l44-16Z" fill="#d9e8fb" opacity="0.9"/>
    <path d="M175 119 209 131v28c0 23-13 39-34 49-21-10-34-26-34-49v-28l34-12Z" fill="url(#shield)"/>
    <path d="M160 161l11 11 24-26" fill="none" stroke="#fff" stroke-width="7" stroke-linecap="round" stroke-linejoin="round"/>
  </g>
</g>
</svg>