<svg xmlns="http://www.w3.org/2000/svg" width="260" height="240" viewBox="0 0 260 240">
  <defs>
    <linearGradient id="paper" x1="0" y1="0" x2="1" y2="1"><stop offset="0" stop-color="#ffffff"/><stop offset="1" stop-color="#eef4fb"/></linearGradient>
    <linearGradient id="shield" x1="0" y1="0" x2="1" y2="1"><stop offset="0" stop-color="#91c4ff"/><stop offset="1" stop-color="#386ba8"/></linearGradient>
    <filter id="soft" x="-20%" y="-20%" width="140%" height="140%"><feDropShadow dx="0" dy="7" stdDeviation="8" flood-color="#56657c" flood-opacity="0.18"/></filter>
  </defs>
  <rect width="260" height="240" fill="#fff"/>
  <g filter="url(#soft)">
    <rect x="47" y="30" width="128" height="168" rx="14" fill="url(#paper)"/>
    <path d="M74 77h77M74 105h77M74 133h77M74 161h50" stroke="#bac7dc" stroke-width="5" stroke-linecap="round"/>
    <path d="M175 108 219 124v34c0 30-18 50-44 62-26-12-44-32-44-62v-34l44-16Z" fill="#d9e8fb" opacity="0.9"/>
    <path d="M175 119 209 131v28c0 23-13 39-34 49-21-10-34-26-34-49v-28l34-12Z" fill="url(#shield)"/>
    <path d="M160 161l11 11 24-26" fill="none" stroke="#fff" stroke-width="7" stroke-linecap="round" stroke-linejoin="round"/>
  </g>
</svg>