<svg xmlns="http://www.w3.org/2000/svg" width="256" height="256" viewBox="0 0 256 256">
  <defs>
    <linearGradient id="g" x1="0" y1="0" x2="1" y2="1"><stop offset="0" stop-color="#f5f8ff"/><stop offset="0.18" stop-color="#94a8c6"/><stop offset="0.55" stop-color="#1f2f4b"/><stop offset="1" stop-color="#0f1b30"/></linearGradient>
    <linearGradient id="edge" x1="0" y1="0" x2="1" y2="1"><stop offset="0" stop-color="#ffffff"/><stop offset="1" stop-color="#6f819c"/></linearGradient>
    <filter id="shadow" x="-20%" y="-20%" width="140%" height="140%"><feDropShadow dx="0" dy="8" stdDeviation="10" flood-color="#081225" flood-opacity="0.25"/></filter>
  </defs>
  <rect width="256" height="256" fill="#fff"/>
  <path filter="url(#shadow)" d="M128 21 202 50v64c0 58-32 98-74 119-42-21-74-61-74-119V50l74-29Z" fill="url(#edge)"/>
  <path d="M128 34 188 58v57c0 47-24 82-60 101-36-19-60-54-60-101V58l60-24Z" fill="url(#g)"/>
  <path d="M128 35v180c36-19 60-54 60-100V58l-60-23Z" fill="#0a1424" opacity="0.23"/>
  <text x="128" y="150" text-anchor="middle" font-family="Arial, Helvetica, sans-serif" font-weight="700" font-size="74" fill="#fff">¥</text>
</svg>